<svg width="168" height="18" viewBox="0 0 168 18" fill="none" xmlns="http://www.w3.org/2000/svg">
    <path
        d="M21.1075 13.7109H9.15442C9.01379 13.7109 8.87317 13.5703 8.87317 13.3594L12.3185 0.492187C12.3888 0.28125 12.1779 0 11.9669 0H4.93567C4.79504 0 4.58411 0.140625 4.58411 0.28125L0.013792 17.5078C-0.0565205 17.7891 0.154417 18 0.365354 18H27.7169C27.8575 18 28.0685 17.8594 28.0685 17.7188L32.7091 0.492187C32.7794 0.28125 32.5685 0 32.3575 0H25.3263C25.1857 0 24.9747 0.140625 24.9747 0.28125L21.4591 13.4297C21.4591 13.6406 21.3185 13.7109 21.1075 13.7109Z"
        fill="black" />
    <path
        d="M134.943 18H162.365C162.506 18 162.717 17.8594 162.717 17.7188L165.459 7.38281C165.529 7.17187 165.318 6.89062 165.108 6.89062H149.779C149.639 6.89062 149.428 7.03125 149.428 7.17188L148.514 10.6875C148.443 10.8984 148.654 11.1797 148.865 11.1797H156.389C156.6 11.1797 156.74 11.3906 156.67 11.5312L156.178 13.4297C156.108 13.5703 155.967 13.7109 155.826 13.7109H144.014C143.733 13.7109 143.592 13.5 143.662 13.2188L145.912 4.64062C145.983 4.5 146.123 4.35938 146.264 4.35938H166.022C166.162 4.35938 166.373 4.21875 166.373 4.07812L167.287 0.5625C167.358 0.351563 167.147 0.0703125 166.936 0.0703125H139.584C139.443 0.0703125 139.233 0.210938 139.233 0.351563L134.592 17.5781C134.522 17.7891 134.733 18 134.943 18Z"
        fill="black" />
    <path
        d="M67.8653 17.5078C67.795 17.7891 67.9356 18 68.2169 18H75.2481C75.3888 18 75.5997 17.8594 75.5997 17.7188L80.17 0.5625C80.2403 0.351563 80.0294 0.0703125 79.8185 0.0703125H72.7872C72.6466 0.0703125 72.4356 0.210938 72.4356 0.351563L71.5216 3.86719C71.4513 4.07812 71.6622 4.35938 71.8731 4.35938H76.0919C72.9278 4.92188 70.9591 5.90625 70.5372 7.3125L67.8653 17.5078Z"
        fill="black" />
    <path
        d="M38.6856 0.0703124H45.9278C46.0685 0.0703124 46.1388 0.140625 46.2091 0.210937L56.1231 11.6016L59.0763 0.421875C59.1466 0.210937 59.3575 0 59.5684 0H66.4591C66.7403 0 66.881 0.210937 66.8106 0.492187L62.17 17.7188C62.17 17.9297 62.0294 18 61.8888 18H54.6466C54.506 18 54.4356 17.9297 54.3653 17.8594L44.5216 6.46875L41.4981 17.7188C41.4278 17.8594 41.2872 18 41.1466 18H34.1153C33.8341 18 33.6935 17.7891 33.7638 17.5078L38.4044 0.28125C38.4044 0.140625 38.545 0.0703124 38.6856 0.0703124Z"
        fill="black" />
    <path
        d="M115.678 17.7188C115.608 17.8594 115.467 18 115.326 18H108.295C108.014 18 107.873 17.7891 107.943 17.5078L110.897 6.46875L99.2247 14.7656L91.9825 6.39844L88.9591 17.6484C88.8888 17.7891 88.7481 17.9297 88.6075 17.9297H81.5763C81.295 17.9297 81.1544 17.7188 81.2247 17.4375L85.795 0.351563C85.8653 0.210938 86.006 0.0703125 86.1466 0.0703125H93.3888C93.5294 0.0703125 93.5997 0.140625 93.67 0.210938L100.842 8.50781L112.584 0.140625C112.654 0.0703124 112.725 0.0703125 112.795 0.0703125H119.897C120.178 0.0703125 120.318 0.28125 120.248 0.5625L115.678 17.7188Z"
        fill="black" />
    <path
        d="M121.233 17.5078C121.162 17.7188 121.373 18 121.584 18H128.615C128.756 18 128.967 17.8594 128.967 17.7188L133.608 0.5625C133.678 0.351563 133.467 0.0703125 133.256 0.0703125H126.225C126.084 0.0703125 125.873 0.210938 125.873 0.351563L124.959 3.86719C124.889 4.07812 125.1 4.35938 125.311 4.35938H129.529C126.365 4.92188 124.397 5.90625 123.975 7.3125L121.233 17.5078Z"
        fill="black" />
</svg> 